<svg height="64pt" preserveAspectRatio="xMidYMid meet" viewBox="0 0 64 64" width="64pt" xmlns="http://www.w3.org/2000/svg"><path d="m450 569c-14-6-43-22-64-37l-40-27 60-5c44-4 59-9 59-20 0-12-17-16-82-18-56-2-85-7-93-17-11-13-5-15 43-15 51 0 87-17 70-33-3-4-43-7-88-7-75 0-105-9-105-32 0-4 28-8 63-10 92-4 76-23-24-26-71-2-90-6-104-22-18-20-17-20 48-20 53 0 67-3 67-15s-15-15-78-15c-75 0-79-1-90-25-16-34-15-60 3-94 16-32 33-41 75-41 53 0 90 27 238 171 151 149 172 179 172 253 0 55-63 81-130 55z" transform="matrix(.1 0 0 -.1 0 64)"/></svg>