<svg height="512" viewBox="0 0 512 512" width="512" xmlns="http://www.w3.org/2000/svg"><path d="m214.37 208h-143.8c-31 0-57.37 14.9-67.26 45.33-1.74 5.38-3.31 12.21-3.31 18.67 0 48 96 128 144 128 28.95 0 53.24-10.67 75.72-33.14-8.58 11.05-13.81 23.47-15.72 37.28-6.98 49.25 1.73 83.2 27.23 91.48 24.76 8.04 56.77 16.38 72.77 16.38 48 0 53.35-109.18 26.33-144.39zm29.29-21.28 44.44-136.76c9.58-29.49 31.9-49.96 63.9-49.96 5.66 0 12.64.62 18.78 2.61 45.65 14.84 92.07 130.86 77.23 176.51-8.94 27.54-26.59 47.34-54.91 61.77 13.15-4.74 26.59-5.88 40.31-3.42 49 8.58 78.59 27.35 78.59 54.16 0 26.04-1.96 59.05-6.91 74.27-14.83 45.65-120.32 17.01-145.46-19.58z"/></svg>