<svg height="64pt" preserveAspectRatio="xMidYMid meet" viewBox="0 0 64 64" width="64pt" xmlns="http://www.w3.org/2000/svg"><path d="m139 597c-19-12-34-29-34-37s21-28 47-45c31-20 45-35 41-45-3-8-7-33-10-55s-16-51-29-65c-51-56-66-131-39-198 22-51 52-81 110-108 64-31 126-31 190 0 58 27 88 57 110 108 27 67 12 142-39 198-14 14-26 43-29 66-6 55-31 90-78 111-44 19-49 34-16 56 17 12 19 18 10 28-10 10-18 10-38 1-14-6-25-16-25-21s-17 0-37 10c-49 25-93 24-134-4zm119-33c30-21 28-31-7-39-30-6-91 17-91 34 0 24 67 27 98 5z" transform="matrix(.1 0 0 -.1 0 64)"/></svg>