<svg height="64pt" preserveAspectRatio="xMidYMid meet" viewBox="0 0 64 64" width="64pt" xmlns="http://www.w3.org/2000/svg"><path d="m127 522c-11-12-17-36-17-65 0-70 16-77 175-77 136 0 150 4 174 45 10 18 11 16 9-15l-3-34-85-21c-101-24-110-29-110-59 0-13-7-29-15-36-19-15-21-130-3-148 17-17 64-15 82 4 22 21 21 112 0 142-9 13-14 26-11 29 3 2 42 13 86 23 45 10 88 23 96 30 23 19 20 112-3 133-10 10-22 17-26 17-5 0-17 11-28 25-19 25-22 25-162 25-126 0-145-2-159-18z" transform="matrix(.1 0 0 -.1 0 64)"/></svg>