<svg height="64pt" preserveAspectRatio="xMidYMid meet" viewBox="0 0 64 64" width="64pt" xmlns="http://www.w3.org/2000/svg"><path d="m120 501c0-23 8-48 20-64 11-14 20-28 20-31s-27-6-60-6c-44 0-60-4-60-13 0-28 40-49 115-61 54-8 82-17 94-31 9-11 28-25 43-32 21-10 31-25 44-70 21-71 61-113 110-113 67 0 96 70 54 130-22 30-72 55-94 47-10-4-20 5-31 25-8 17-15 33-15 35 0 12 51-1 85-22 75-46 145-23 145 48 0 65-54 101-109 72-16-8-31-20-33-26-3-10-12-10-38-1-18 7-56 12-84 12-50 0-53 1-121 70-38 39-73 70-77 70-5 0-8-17-8-39zm418-154c4-20-25-34-40-19s-1 44 19 40c10-2 19-11 21-21zm-228-13c0-8-7-14-15-14-15 0-21 21-9 33 10 9 24-2 24-19zm154-167c15-23-8-46-31-31-25 16-37 39-29 59 6 15 9 16 28 3 12-8 27-22 32-31z" transform="matrix(.1 0 0 -.1 0 64)"/></svg>